<svg xmlns="http://www.w3.org/2000/svg" width="375" viewBox="0 0 375 375" height="375" version="1.0"><defs><clipPath id="a"><path d="M 146.15625 103.433594 L 228.582031 103.433594 L 228.582031 218.832031 L 146.15625 218.832031 Z M 146.15625 103.433594"/></clipPath><clipPath id="b"><path d="M 160.46875 162 L 214.773438 162 L 214.773438 216 L 160.46875 216 Z M 160.46875 162"/></clipPath><clipPath id="c"><path d="M 161 163 L 214.773438 163 L 214.773438 217 L 161 217 Z M 161 163"/></clipPath></defs><g clip-path="url(#a)"><path fill="#FF9147" d="M 176.847656 103.433594 C 176.847656 103.433594 187.511719 114.1875 177.894531 125.335938 C 166.324219 138.742188 156.734375 135.734375 158.597656 148.703125 C 160.632812 162.894531 160.285156 164.925781 156.449219 165.796875 C 150.027344 167.253906 151.621094 155.574219 151.621094 155.574219 C 148.832031 158.851562 146.785156 165.917969 146.289062 174.347656 C 146.203125 175.460938 146.15625 176.582031 146.15625 177.703125 C 146.15625 188.625 150.496094 199.097656 158.226562 206.820312 C 165.953125 214.546875 176.4375 218.882812 187.371094 218.882812 C 198.296875 218.882812 208.78125 214.546875 216.511719 206.820312 C 224.238281 199.097656 228.585938 188.625 228.585938 177.703125 C 228.585938 176.96875 228.5625 176.246094 228.519531 175.519531 C 228.273438 167.449219 226.613281 159.960938 223.972656 154.507812 C 223.246094 169.292969 218.046875 166.097656 217.722656 163.316406 C 216.859375 155.957031 220.1875 152.28125 215.839844 146.382812 C 213.242188 142.855469 210.78125 136.378906 216.257812 130.6875 C 216.257812 130.6875 208.085938 130.628906 208.234375 141.574219 C 208.234375 141.574219 204.730469 113.121094 176.847656 103.433594 Z M 174.277344 105.148438 C 183.035156 123.398438 156.679688 127.828125 152.46875 136.273438 C 148.542969 144.15625 155.425781 149.757812 155.425781 149.757812 C 153.945312 146.382812 152.789062 141.222656 157.636719 135.742188 C 162.488281 130.269531 176.4375 126.320312 178.117188 116.703125 C 179.320312 109.832031 174.277344 105.148438 174.277344 105.148438 Z M 220.140625 124.96875 C 220.140625 124.96875 220.492188 128.890625 217.355469 134.320312 C 214.667969 138.972656 218.128906 145.535156 221.484375 146.800781 C 221.484375 146.800781 218.949219 142.183594 221.707031 136.742188 C 224.460938 131.304688 222.875 124.96875 220.140625 124.96875 Z M 220.140625 124.96875"/></g><g clip-path="url(#b)"><path fill="#FFF" d="M 179.550781 200.019531 C 183.578125 194.011719 192.148438 186.59375 192.148438 186.59375 C 192.148438 186.59375 194.464844 184.464844 197.292969 184.464844 C 200.121094 184.464844 200.632812 183.652344 200.632812 183.652344 L 204.164062 180.125 C 208.554688 175.761719 212.636719 170.820312 214.539062 168.445312 C 214.742188 168.195312 214.40625 167.871094 214.164062 168.082031 C 210.839844 170.960938 203.625 178.652344 203.625 178.652344 C 203.625 178.652344 202.855469 179.386719 202.195312 178.96875 C 201.53125 178.546875 202.449219 177.40625 202.449219 177.40625 C 208.222656 171.84375 211.117188 168.394531 212.453125 166.636719 C 212.640625 166.390625 212.316406 166.078125 212.078125 166.273438 C 207.601562 169.945312 202.65625 175.609375 201.59375 176.503906 C 200.421875 177.496094 199.878906 176.777344 199.878906 176.777344 C 199.878906 176.777344 199.15625 176.234375 200.148438 175.0625 C 201.046875 174.003906 206.71875 169.0625 210.394531 164.59375 C 210.59375 164.355469 210.28125 164.03125 210.03125 164.21875 C 208.269531 165.550781 204.816406 168.445312 199.246094 174.207031 C 199.246094 174.207031 198.105469 175.125 197.683594 174.464844 C 197.261719 173.804688 198 173.035156 198 173.035156 C 198 173.035156 205.703125 165.828125 208.585938 162.511719 C 208.792969 162.269531 208.472656 161.9375 208.222656 162.136719 C 205.839844 164.039062 200.894531 168.113281 196.527344 172.496094 L 192.992188 176.023438 C 192.992188 176.023438 192.179688 176.535156 192.179688 179.359375 C 192.179688 182.179688 190.042969 184.492188 190.042969 184.492188 C 190.042969 184.492188 182.617188 193.050781 176.601562 197.074219 C 170.585938 201.101562 170.074219 204.191406 168.78125 205.0625 C 167.488281 205.933594 163.398438 208.035156 161.957031 209.417969 C 160.511719 210.800781 160.542969 212.992188 161.957031 214.644531 C 163.609375 216.054688 165.804688 216.085938 167.1875 214.644531 C 168.570312 213.203125 170.675781 209.117188 171.550781 207.828125 C 172.421875 206.535156 175.519531 206.023438 179.550781 200.019531"/></g><g clip-path="url(#c)"><path fill="#FFF" d="M 205.808594 204.988281 C 207.199219 205.863281 211.652344 207.90625 213.167969 209.347656 C 214.6875 210.789062 214.46875 213.269531 212.734375 215.253906 C 210.746094 216.988281 208.261719 217.203125 206.816406 215.6875 C 205.371094 214.175781 203.332031 209.730469 202.453125 208.339844 C 201.574219 206.953125 198.113281 206.632812 194.054688 200.171875 C 189.996094 193.714844 180.917969 186.035156 180.917969 186.035156 C 180.917969 186.035156 179.699219 184.929688 177.863281 184.363281 C 174.394531 183.742188 169.898438 186.269531 164.65625 178.839844 C 163.121094 176.65625 162.226562 174.734375 161.753906 173.078125 C 161.476562 172.109375 161.34375 171.234375 161.3125 170.445312 C 161.261719 169.351562 161.40625 168.429688 161.621094 167.691406 C 161.765625 167.191406 161.941406 166.773438 162.113281 166.4375 C 162.46875 165.746094 162.800781 165.398438 162.800781 165.398438 C 162.800781 165.398438 163.152344 165.0625 163.84375 164.710938 C 164.179688 164.539062 164.601562 164.363281 165.101562 164.21875 C 165.84375 164.003906 166.761719 163.859375 167.859375 163.90625 C 168.648438 163.941406 169.527344 164.074219 170.496094 164.347656 C 172.15625 164.820312 174.082031 165.714844 176.265625 167.25 C 183.707031 172.480469 181.175781 176.96875 181.796875 180.433594 C 182.367188 182.269531 183.472656 183.484375 183.472656 183.484375 C 183.472656 183.484375 191.164062 192.546875 197.628906 196.601562 C 204.097656 200.65625 204.417969 204.109375 205.808594 204.988281"/></g></svg>