<svg xmlns="http://www.w3.org/2000/svg" width="375" viewBox="0 0 375 375" height="375" version="1.0"><defs><clipPath id="a"><path d="M 146.15625 103.433594 L 228.582031 103.433594 L 228.582031 218.832031 L 146.15625 218.832031 Z M 146.15625 103.433594"/></clipPath><clipPath id="b"><path d="M 160.46875 162 L 214.773438 162 L 214.773438 216 L 160.46875 216 Z M 160.46875 162"/></clipPath><clipPath id="c"><path d="M 161 163 L 214.773438 163 L 214.773438 217 L 161 217 Z M 161 163"/></clipPath></defs><g clip-path="url(#a)"><path fill="#FF9147" d="M 176.847656 103.433594 C 176.847656 103.433594 187.511719 114.1875 177.894531 125.335938 C 166.324219 138.742188 156.734375 135.734375 158.597656 148.703125 C 160.632812 162.894531 160.285156 164.925781 156.449219 165.796875 C 150.027344 167.253906 151.621094 155.574219 151.621094 155.574219 C 148.832031 158.851562 146.785156 165.917969 146.289062 174.347656 C 146.203125 175.460938 146.15625 176.582031 146.15625 177.703125 C 146.15625 188.625 150.496094 199.097656 158.226562 206.820312 C 165.953125 214.546875 176.4375 218.882812 187.371094 218.882812 C 198.296875 218.882812 208.78125 214.546875 216.511719 206.820312 C 224.238281 199.097656 228.585938 188.625 228.585938 177.703125 C 228.585938 176.96875 228.5625 176.246094 228.519531 175.519531 C 228.273438 167.449219 226.613281 159.960938 223.972656 154.507812 C 223.246094 169.292969 218.046875 166.097656 217.722656 163.316406 C 216.859375 155.957031 220.1875 152.28125 215.839844 146.382812 C 213.242188 142.855469 210.78125 136.378906 216.257812 130.6875 C 216.257812 130.6875 208.085938 130.628906 208.234375 141.574219 C 208.234375 141.574219 204.730469 113.121094 176.847656 103.433594 Z M 174.277344 105.148438 C 183.035156 123.398438 156.679688 127.828125 152.46875 136.273438 C 148.542969 144.15625 155.425781 149.757812 155.425781 149.757812 C 153.945312 146.382812 152.789062 141.222656 157.636719 135.742188 C 162.488281 130.269531 176.4375 126.320312 178.117188 116.703125 C 179.320312 109.832031 174.277344 105.148438 174.277344 105.148438 Z M 220.140625 124.96875 C 220.140625 124.96875 220.492188 128.890625 217.355469 134.320312 C 214.667969 138.972656 218.128906 145.535156 221.484375 146.800781 C 221.484375 146.800781 218.949219 142.183594 221.707031 136.742188 C 224.460938 131.304688 222.875 124.96875 220.140625 124.96875 Z M 220.140625 124.96875"/></g><g clip-path="url(#b)"><path fill="#FFF" d="M 179.550781 200.019531 C 183.578125 194.011719 192.148438 186.59375 192.148438 186.59375 C 192.148438 186.59375 194.464844 184.464844 197.292969 184.464844 C 200.121094 184.464844 200.632812 183.652344 200.632812 183.652344 L 204.164062 180.125 C 208.554688 175.761719 212.636719 170.820312 214.539062 168.445312 C 214.742188 168.195312 214.40625 167.871094 214.164062 168.082031 C 210.839844 170.960938 203.625 178.652344 203.625 178.652344 C 203.625 178.652344 202.855469 179.386719 202.195312 178.96875 C 201.53125 178.546875 202.449219 177.40625 202.449219 177.40625 C 208.222656 171.84375 211.117188 168.394531 212.453125 166.636719 C 212.640625 166.390625 212.316406 166.078125 212.078125 166.273438 C 207.601562 169.945312 202.65625 175.609375 201.59375 176.503906 C 200.421875 177.496094 199.878906 176.777344 199.878906 176.777344 C 199.878906 176.777344 199.15625 176.234375 200.148438 175.0625 C 201.046875 174.003906 206.71875 169.0625 210.394531 164.59375 C 210.59375 164.355469 210.28125 164.03125 210.03125 164.21875 C 208.269531 165.550781 204.816406 168.445312 199.246094 174.207031 C 199.246094 174.207031 198.105469 175.125 197.683594 174.464844 C 197.261719 173.804688 198 173.035156 198 173.035156 C 198 173.035156 205.703125 165.828125 208.585938 162.511719 C 208.792969 162.269531 208.472656 161.9375 208.222656 162.136719 C 205.839844 164.039062 200.894531 168.113281 196.527344 172.496094 L 192.992188 176.023438 C 192.992188 176.023438 192.179688 176.535156 192.179688 179.359375 C 192.179688 182.179688 190.042969 184.492188 190.042969 184.492188 C 190.042969 184.492188 182.617188 193.050781 176.601562 197.074219 C 170.585938 201.101562 170.074219 204.191406 168.78125 205.0625 C 167.488281 205.933594 163.398438 208.035156 161.957031 209.417969 C 160.511719 210.800781 160.542969 212.992188 161.957031 214.644531 C 163.609375 216.054688 165.804688 216.085938 167.1875 214.644531 C 168.570312 213.203125 170.675781 209.117188 171.550781 207.828125 C 172.421875 206.535156 175.519531 206.023438 179.550781 200.019531"/></g><g clip-path="url(#c)"><path fill="#FFF" d="M 205.808594 204.988281 C 207.199219 205.863281 211.652344 207.90625 213.167969 209.347656 C 214.6875 210.789062 214.46875 213.269531 212.734375 215.253906 C 210.746094 216.988281 208.261719 217.203125 206.816406 215.6875 C 205.371094 214.175781 203.332031 209.730469 202.453125 208.339844 C 201.574219 206.953125 198.113281 206.632812 194.054688 200.171875 C 189.996094 193.714844 180.917969 186.035156 180.917969 186.035156 C 180.917969 186.035156 179.699219 184.929688 177.863281 184.363281 C 174.394531 183.742188 169.898438 186.269531 164.65625 178.839844 C 163.121094 176.65625 162.226562 174.734375 161.753906 173.078125 C 161.476562 172.109375 161.34375 171.234375 161.3125 170.445312 C 161.261719 169.351562 161.40625 168.429688 161.621094 167.691406 C 161.765625 167.191406 161.941406 166.773438 162.113281 166.4375 C 162.46875 165.746094 162.800781 165.398438 162.800781 165.398438 C 162.800781 165.398438 163.152344 165.0625 163.84375 164.710938 C 164.179688 164.539062 164.601562 164.363281 165.101562 164.21875 C 165.84375 164.003906 166.761719 163.859375 167.859375 163.90625 C 168.648438 163.941406 169.527344 164.074219 170.496094 164.347656 C 172.15625 164.820312 174.082031 165.714844 176.265625 167.25 C 183.707031 172.480469 181.175781 176.96875 181.796875 180.433594 C 182.367188 182.269531 183.472656 183.484375 183.472656 183.484375 C 183.472656 183.484375 191.164062 192.546875 197.628906 196.601562 C 204.097656 200.65625 204.417969 204.109375 205.808594 204.988281"/></g><g fill="#2B2B2B"><g><g><path d="M 1.6875 0 L 10.109375 0 C 15.238281 0 18.59375 -2.75 18.59375 -7.296875 C 18.59375 -11.839844 15.238281 -14.59375 10.109375 -14.59375 L 1.6875 -14.59375 C 1.917969 -13.78125 2.085938 -12.507812 2.085938 -11.089844 L 2.085938 -3.503906 C 2.085938 -2.085938 1.9375 -0.8125 1.6875 0 Z M 5.316406 -2.855469 L 5.316406 -11.757812 L 9.882812 -11.757812 C 13.03125 -11.757812 15.261719 -10.089844 15.261719 -7.296875 C 15.261719 -4.503906 13.03125 -2.855469 9.882812 -2.855469 Z M 5.316406 -2.855469" transform="translate(137.391 244.366)"/></g></g></g><g fill="#2B2B2B"><g><g><path d="M 1.6875 0 L 5.691406 0 C 5.460938 -0.8125 5.316406 -2.085938 5.316406 -3.503906 L 5.316406 -11.089844 C 5.316406 -12.507812 5.460938 -13.78125 5.691406 -14.59375 L 1.6875 -14.59375 C 1.917969 -13.78125 2.0625 -12.507812 2.0625 -11.089844 L 2.0625 -3.503906 C 2.0625 -2.085938 1.9375 -0.8125 1.6875 0 Z M 1.6875 0" transform="translate(157.965 244.366)"/></g></g></g><g fill="#2B2B2B"><g><g><path d="M 1.6875 0 L 5.691406 0 C 5.503906 -0.730469 5.316406 -2.273438 5.316406 -3.730469 L 5.316406 -10.570312 L 5.566406 -10.570312 L 15.699219 0 L 18.679688 0 L 18.679688 -11.089844 C 18.679688 -12.507812 18.824219 -13.78125 19.054688 -14.59375 L 15.050781 -14.59375 C 15.238281 -13.925781 15.425781 -12.589844 15.425781 -11.152344 L 15.425781 -4.355469 L 15.15625 -4.355469 L 5.460938 -14.59375 L 1.6875 -14.59375 C 1.9375 -13.78125 2.085938 -12.507812 2.085938 -11.089844 L 2.085938 -3.503906 C 2.085938 -2.085938 1.917969 -0.8125 1.6875 0 Z M 1.6875 0" transform="translate(166.408 244.366)"/></g></g></g><g fill="#2B2B2B"><g><g><path d="M 1.6875 0 L 5.691406 0 C 5.460938 -0.8125 5.316406 -2.085938 5.316406 -3.503906 L 5.316406 -11.089844 C 5.316406 -12.507812 5.460938 -13.78125 5.691406 -14.59375 L 1.6875 -14.59375 C 1.917969 -13.78125 2.0625 -12.507812 2.0625 -11.089844 L 2.0625 -3.503906 C 2.0625 -2.085938 1.9375 -0.8125 1.6875 0 Z M 1.6875 0" transform="translate(188.19 244.366)"/></g></g></g><g fill="#2B2B2B"><g><g><path d="M 1.6875 0 L 5.691406 0 C 5.503906 -0.730469 5.316406 -2.273438 5.316406 -3.730469 L 5.316406 -10.570312 L 5.566406 -10.570312 L 15.699219 0 L 18.679688 0 L 18.679688 -11.089844 C 18.679688 -12.507812 18.824219 -13.78125 19.054688 -14.59375 L 15.050781 -14.59375 C 15.238281 -13.925781 15.425781 -12.589844 15.425781 -11.152344 L 15.425781 -4.355469 L 15.15625 -4.355469 L 5.460938 -14.59375 L 1.6875 -14.59375 C 1.9375 -13.78125 2.085938 -12.507812 2.085938 -11.089844 L 2.085938 -3.503906 C 2.085938 -2.085938 1.917969 -0.8125 1.6875 0 Z M 1.6875 0" transform="translate(196.633 244.366)"/></g></g></g><g fill="#2B2B2B"><g><g><path d="M 10.257812 0.292969 C 13.632812 0.292969 16.59375 -0.8125 18.179688 -2.523438 L 18.179688 -8.527344 L 9.796875 -8.527344 L 9.652344 -5.691406 C 10.046875 -5.816406 10.964844 -5.898438 11.570312 -5.898438 L 15.09375 -5.898438 L 15.09375 -4.148438 C 14.113281 -3.128906 12.238281 -2.5 10.339844 -2.5 C 6.671875 -2.5 4.148438 -4.316406 4.148438 -7.253906 C 4.148438 -10.257812 6.835938 -12.113281 10.652344 -12.113281 C 12.738281 -12.113281 15.007812 -11.675781 16.34375 -10.859375 L 16.511719 -13.800781 C 14.820312 -14.445312 12.714844 -14.882812 10.296875 -14.882812 C 4.816406 -14.882812 0.9375 -11.902344 0.9375 -7.253906 C 0.9375 -2.625 4.730469 0.292969 10.257812 0.292969 Z M 10.257812 0.292969" transform="translate(218.416 244.366)"/></g></g></g><g fill="#FF9147"><g><g><path d="M 17.765625 0 L 11.359375 0 L 11.359375 -0.484375 C 12.085938 -0.546875 12.554688 -0.664062 12.765625 -0.84375 C 12.972656 -1.03125 13.078125 -1.394531 13.078125 -1.9375 L 13.078125 -11.75 L 8.21875 0 L 7.703125 0 L 2.84375 -11.46875 L 2.84375 -2.390625 C 2.84375 -1.671875 2.96875 -1.1875 3.21875 -0.9375 C 3.476562 -0.6875 4 -0.535156 4.78125 -0.484375 L 4.78125 0 L 0.265625 0 L 0.265625 -0.484375 C 1.015625 -0.554688 1.492188 -0.6875 1.703125 -0.875 C 1.921875 -1.0625 2.03125 -1.445312 2.03125 -2.03125 L 2.03125 -11.1875 C 2.03125 -11.6875 1.921875 -12.023438 1.703125 -12.203125 C 1.484375 -12.390625 1.019531 -12.507812 0.3125 -12.5625 L 0.3125 -13.046875 L 5.1875 -13.046875 L 9.046875 -3.9375 L 12.90625 -13.046875 L 17.765625 -13.046875 L 17.765625 -12.5625 C 17.066406 -12.507812 16.609375 -12.375 16.390625 -12.15625 C 16.179688 -11.9375 16.078125 -11.476562 16.078125 -10.78125 L 16.078125 -2.25 C 16.078125 -1.570312 16.171875 -1.128906 16.359375 -0.921875 C 16.554688 -0.722656 17.023438 -0.578125 17.765625 -0.484375 Z M 17.765625 0" transform="translate(33.972 271.032)"/></g></g></g><g fill="#FF9147"><g><g><path d="M 13.296875 0 L 7.046875 0 L 7.046875 -0.484375 L 7.65625 -0.546875 C 7.988281 -0.554688 8.226562 -0.609375 8.375 -0.703125 C 8.519531 -0.796875 8.59375 -0.953125 8.59375 -1.171875 C 8.59375 -1.546875 8.296875 -2.421875 7.703125 -3.796875 L 3.359375 -3.796875 L 3.0625 -3.03125 C 2.695312 -2.101562 2.515625 -1.515625 2.515625 -1.265625 C 2.515625 -1.023438 2.632812 -0.84375 2.875 -0.71875 C 3.113281 -0.601562 3.519531 -0.523438 4.09375 -0.484375 L 4.09375 0 L 0.171875 0 L 0.171875 -0.484375 C 0.640625 -0.578125 0.984375 -0.75 1.203125 -1 C 1.421875 -1.257812 1.707031 -1.835938 2.0625 -2.734375 L 6.34375 -13.3125 L 6.890625 -13.3125 L 11.1875 -3.171875 C 11.707031 -1.953125 12.082031 -1.195312 12.3125 -0.90625 C 12.539062 -0.625 12.867188 -0.484375 13.296875 -0.484375 Z M 7.40625 -4.546875 L 5.46875 -9.25 L 3.640625 -4.546875 Z M 7.40625 -4.546875" transform="translate(57.004 271.032)"/></g></g></g><g fill="#FF9147"><g><g><path d="M 13.53125 -12.5625 C 12.894531 -12.457031 12.484375 -12.3125 12.296875 -12.125 C 12.109375 -11.9375 12.015625 -11.566406 12.015625 -11.015625 L 12.015625 0.34375 L 11.484375 0.34375 L 2.859375 -10.15625 L 2.859375 -2.390625 C 2.859375 -1.710938 2.972656 -1.25 3.203125 -1 C 3.441406 -0.75 3.9375 -0.578125 4.6875 -0.484375 L 4.6875 0 L 0.3125 0 L 0.3125 -0.484375 C 1.019531 -0.578125 1.476562 -0.71875 1.6875 -0.90625 C 1.894531 -1.101562 2 -1.476562 2 -2.03125 L 2 -11.171875 C 1.539062 -11.722656 1.203125 -12.09375 0.984375 -12.28125 C 0.765625 -12.46875 0.554688 -12.5625 0.359375 -12.5625 L 0.359375 -13.046875 L 4.4375 -13.046875 L 11.171875 -4.765625 L 11.171875 -10.65625 C 11.171875 -11.332031 11.046875 -11.800781 10.796875 -12.0625 C 10.554688 -12.332031 10.082031 -12.5 9.375 -12.5625 L 9.375 -13.046875 L 13.53125 -13.046875 Z M 13.53125 -12.5625" transform="translate(75.754 271.032)"/></g></g></g><g fill="#FF9147"><g><g><path d="M 13.296875 0 L 7.046875 0 L 7.046875 -0.484375 L 7.65625 -0.546875 C 7.988281 -0.554688 8.226562 -0.609375 8.375 -0.703125 C 8.519531 -0.796875 8.59375 -0.953125 8.59375 -1.171875 C 8.59375 -1.546875 8.296875 -2.421875 7.703125 -3.796875 L 3.359375 -3.796875 L 3.0625 -3.03125 C 2.695312 -2.101562 2.515625 -1.515625 2.515625 -1.265625 C 2.515625 -1.023438 2.632812 -0.84375 2.875 -0.71875 C 3.113281 -0.601562 3.519531 -0.523438 4.09375 -0.484375 L 4.09375 0 L 0.171875 0 L 0.171875 -0.484375 C 0.640625 -0.578125 0.984375 -0.75 1.203125 -1 C 1.421875 -1.257812 1.707031 -1.835938 2.0625 -2.734375 L 6.34375 -13.3125 L 6.890625 -13.3125 L 11.1875 -3.171875 C 11.707031 -1.953125 12.082031 -1.195312 12.3125 -0.90625 C 12.539062 -0.625 12.867188 -0.484375 13.296875 -0.484375 Z M 7.40625 -4.546875 L 5.46875 -9.25 L 3.640625 -4.546875 Z M 7.40625 -4.546875" transform="translate(94.504 271.032)"/></g></g></g><g fill="#FF9147"><g><g><path d="M 14.5625 -5.0625 C 13.84375 -4.976562 13.382812 -4.832031 13.1875 -4.625 C 13 -4.425781 12.90625 -3.976562 12.90625 -3.28125 L 12.90625 -0.828125 C 12.289062 -0.472656 11.5 -0.1875 10.53125 0.03125 C 9.570312 0.25 8.585938 0.359375 7.578125 0.359375 C 5.554688 0.359375 3.90625 -0.265625 2.625 -1.515625 C 1.351562 -2.765625 0.71875 -4.390625 0.71875 -6.390625 C 0.71875 -8.367188 1.351562 -10.019531 2.625 -11.34375 C 3.90625 -12.664062 5.503906 -13.328125 7.421875 -13.328125 C 8.316406 -13.328125 9.316406 -13.101562 10.421875 -12.65625 C 10.816406 -12.476562 11.113281 -12.390625 11.3125 -12.390625 C 11.488281 -12.390625 11.640625 -12.453125 11.765625 -12.578125 C 11.898438 -12.710938 12.03125 -12.945312 12.15625 -13.28125 L 12.671875 -13.28125 L 12.671875 -8.765625 L 12.203125 -8.765625 C 11.859375 -9.492188 11.546875 -10.0625 11.265625 -10.46875 C 10.992188 -10.875 10.65625 -11.253906 10.25 -11.609375 C 9.414062 -12.335938 8.5625 -12.703125 7.6875 -12.703125 C 6.507812 -12.703125 5.617188 -12.175781 5.015625 -11.125 C 4.421875 -10.070312 4.125 -8.535156 4.125 -6.515625 C 4.125 -4.210938 4.546875 -2.53125 5.390625 -1.46875 C 6.003906 -0.664062 6.890625 -0.265625 8.046875 -0.265625 C 8.691406 -0.265625 9.160156 -0.378906 9.453125 -0.609375 C 9.753906 -0.835938 9.90625 -1.191406 9.90625 -1.671875 L 9.90625 -3.703125 C 9.90625 -4.234375 9.785156 -4.578125 9.546875 -4.734375 C 9.304688 -4.898438 8.773438 -5.007812 7.953125 -5.0625 L 7.953125 -5.53125 L 14.5625 -5.53125 Z M 14.5625 -5.0625" transform="translate(113.254 271.032)"/></g></g></g><g fill="#FF9147"><g><g><path d="M 12.375 -4.015625 L 11.59375 0 L 0.3125 0 L 0.3125 -0.484375 C 1.03125 -0.554688 1.488281 -0.675781 1.6875 -0.84375 C 1.894531 -1.007812 2 -1.347656 2 -1.859375 L 2 -11.1875 C 2 -11.675781 1.882812 -12.015625 1.65625 -12.203125 C 1.425781 -12.398438 0.976562 -12.519531 0.3125 -12.5625 L 0.3125 -13.046875 L 11.4375 -13.046875 L 11.4375 -9.171875 L 10.953125 -9.171875 C 10.710938 -10.453125 10.28125 -11.304688 9.65625 -11.734375 C 9.039062 -12.171875 7.953125 -12.390625 6.390625 -12.390625 C 5.890625 -12.390625 5.554688 -12.328125 5.390625 -12.203125 C 5.222656 -12.078125 5.140625 -11.835938 5.140625 -11.484375 L 5.140625 -7 C 6.179688 -6.988281 6.925781 -7.1875 7.375 -7.59375 C 7.820312 -8.007812 8.117188 -8.769531 8.265625 -9.875 L 8.765625 -9.875 L 8.765625 -3.359375 L 8.265625 -3.359375 C 8.140625 -4.472656 7.847656 -5.25 7.390625 -5.6875 C 6.941406 -6.125 6.191406 -6.34375 5.140625 -6.34375 L 5.140625 -1.671875 C 5.140625 -1.265625 5.25 -0.984375 5.46875 -0.828125 C 5.695312 -0.671875 6.117188 -0.59375 6.734375 -0.59375 C 8.171875 -0.59375 9.328125 -0.945312 10.203125 -1.65625 C 10.796875 -2.15625 11.335938 -2.941406 11.828125 -4.015625 Z M 12.375 -4.015625" transform="translate(133.084 271.032)"/></g></g></g><g fill="#FF9147"><g><g><path d="M 17.765625 0 L 11.359375 0 L 11.359375 -0.484375 C 12.085938 -0.546875 12.554688 -0.664062 12.765625 -0.84375 C 12.972656 -1.03125 13.078125 -1.394531 13.078125 -1.9375 L 13.078125 -11.75 L 8.21875 0 L 7.703125 0 L 2.84375 -11.46875 L 2.84375 -2.390625 C 2.84375 -1.671875 2.96875 -1.1875 3.21875 -0.9375 C 3.476562 -0.6875 4 -0.535156 4.78125 -0.484375 L 4.78125 0 L 0.265625 0 L 0.265625 -0.484375 C 1.015625 -0.554688 1.492188 -0.6875 1.703125 -0.875 C 1.921875 -1.0625 2.03125 -1.445312 2.03125 -2.03125 L 2.03125 -11.1875 C 2.03125 -11.6875 1.921875 -12.023438 1.703125 -12.203125 C 1.484375 -12.390625 1.019531 -12.507812 0.3125 -12.5625 L 0.3125 -13.046875 L 5.1875 -13.046875 L 9.046875 -3.9375 L 12.90625 -13.046875 L 17.765625 -13.046875 L 17.765625 -12.5625 C 17.066406 -12.507812 16.609375 -12.375 16.390625 -12.15625 C 16.179688 -11.9375 16.078125 -11.476562 16.078125 -10.78125 L 16.078125 -2.25 C 16.078125 -1.570312 16.171875 -1.128906 16.359375 -0.921875 C 16.554688 -0.722656 17.023438 -0.578125 17.765625 -0.484375 Z M 17.765625 0" transform="translate(150.773 271.032)"/></g></g></g><g fill="#FF9147"><g><g><path d="M 12.375 -4.015625 L 11.59375 0 L 0.3125 0 L 0.3125 -0.484375 C 1.03125 -0.554688 1.488281 -0.675781 1.6875 -0.84375 C 1.894531 -1.007812 2 -1.347656 2 -1.859375 L 2 -11.1875 C 2 -11.675781 1.882812 -12.015625 1.65625 -12.203125 C 1.425781 -12.398438 0.976562 -12.519531 0.3125 -12.5625 L 0.3125 -13.046875 L 11.4375 -13.046875 L 11.4375 -9.171875 L 10.953125 -9.171875 C 10.710938 -10.453125 10.28125 -11.304688 9.65625 -11.734375 C 9.039062 -12.171875 7.953125 -12.390625 6.390625 -12.390625 C 5.890625 -12.390625 5.554688 -12.328125 5.390625 -12.203125 C 5.222656 -12.078125 5.140625 -11.835938 5.140625 -11.484375 L 5.140625 -7 C 6.179688 -6.988281 6.925781 -7.1875 7.375 -7.59375 C 7.820312 -8.007812 8.117188 -8.769531 8.265625 -9.875 L 8.765625 -9.875 L 8.765625 -3.359375 L 8.265625 -3.359375 C 8.140625 -4.472656 7.847656 -5.25 7.390625 -5.6875 C 6.941406 -6.125 6.191406 -6.34375 5.140625 -6.34375 L 5.140625 -1.671875 C 5.140625 -1.265625 5.25 -0.984375 5.46875 -0.828125 C 5.695312 -0.671875 6.117188 -0.59375 6.734375 -0.59375 C 8.171875 -0.59375 9.328125 -0.945312 10.203125 -1.65625 C 10.796875 -2.15625 11.335938 -2.941406 11.828125 -4.015625 Z M 12.375 -4.015625" transform="translate(173.805 271.032)"/></g></g></g><g fill="#FF9147"><g><g><path d="M 13.53125 -12.5625 C 12.894531 -12.457031 12.484375 -12.3125 12.296875 -12.125 C 12.109375 -11.9375 12.015625 -11.566406 12.015625 -11.015625 L 12.015625 0.34375 L 11.484375 0.34375 L 2.859375 -10.15625 L 2.859375 -2.390625 C 2.859375 -1.710938 2.972656 -1.25 3.203125 -1 C 3.441406 -0.75 3.9375 -0.578125 4.6875 -0.484375 L 4.6875 0 L 0.3125 0 L 0.3125 -0.484375 C 1.019531 -0.578125 1.476562 -0.71875 1.6875 -0.90625 C 1.894531 -1.101562 2 -1.476562 2 -2.03125 L 2 -11.171875 C 1.539062 -11.722656 1.203125 -12.09375 0.984375 -12.28125 C 0.765625 -12.46875 0.554688 -12.5625 0.359375 -12.5625 L 0.359375 -13.046875 L 4.4375 -13.046875 L 11.171875 -4.765625 L 11.171875 -10.65625 C 11.171875 -11.332031 11.046875 -11.800781 10.796875 -12.0625 C 10.554688 -12.332031 10.082031 -12.5 9.375 -12.5625 L 9.375 -13.046875 L 13.53125 -13.046875 Z M 13.53125 -12.5625" transform="translate(191.494 271.032)"/></g></g></g><g fill="#FF9147"><g><g><path d="M 12.265625 -9.171875 L 11.71875 -9.171875 C 11.550781 -10.316406 11.1875 -11.132812 10.625 -11.625 C 10.0625 -12.125 9.191406 -12.390625 8.015625 -12.421875 L 8.015625 -2.25 C 8.015625 -1.519531 8.117188 -1.054688 8.328125 -0.859375 C 8.535156 -0.671875 9.0625 -0.546875 9.90625 -0.484375 L 9.90625 0 L 3.015625 0 L 3.015625 -0.484375 C 3.835938 -0.546875 4.351562 -0.675781 4.5625 -0.875 C 4.769531 -1.070312 4.875 -1.53125 4.875 -2.25 L 4.875 -12.421875 C 3.6875 -12.390625 2.8125 -12.125 2.25 -11.625 C 1.6875 -11.132812 1.320312 -10.316406 1.15625 -9.171875 L 0.59375 -9.171875 L 0.65625 -13.046875 L 12.234375 -13.046875 Z M 12.265625 -9.171875" transform="translate(210.244 271.032)"/></g></g></g><g fill="#FF9147"><g><g><path d="M 9.90625 -3.703125 C 9.90625 -2.492188 9.460938 -1.515625 8.578125 -0.765625 C 7.691406 -0.015625 6.535156 0.359375 5.109375 0.359375 C 4.328125 0.359375 3.492188 0.207031 2.609375 -0.09375 C 2.203125 -0.226562 1.9375 -0.296875 1.8125 -0.296875 C 1.65625 -0.296875 1.53125 -0.242188 1.4375 -0.140625 C 1.351562 -0.046875 1.285156 0.117188 1.234375 0.359375 L 0.671875 0.359375 L 0.671875 -4.40625 L 1.234375 -4.40625 C 1.398438 -3.707031 1.5625 -3.164062 1.71875 -2.78125 C 1.882812 -2.394531 2.109375 -2.019531 2.390625 -1.65625 C 3.128906 -0.726562 4.054688 -0.265625 5.171875 -0.265625 C 5.921875 -0.265625 6.515625 -0.460938 6.953125 -0.859375 C 7.390625 -1.253906 7.609375 -1.785156 7.609375 -2.453125 C 7.609375 -2.960938 7.457031 -3.378906 7.15625 -3.703125 C 6.863281 -4.023438 6.289062 -4.382812 5.4375 -4.78125 L 4.15625 -5.40625 C 2.488281 -6.195312 1.457031 -7.101562 1.0625 -8.125 C 0.914062 -8.519531 0.84375 -8.941406 0.84375 -9.390625 C 0.84375 -10.617188 1.21875 -11.582031 1.96875 -12.28125 C 2.726562 -12.976562 3.765625 -13.328125 5.078125 -13.328125 C 5.785156 -13.328125 6.535156 -13.179688 7.328125 -12.890625 C 7.710938 -12.765625 7.984375 -12.703125 8.140625 -12.703125 C 8.316406 -12.703125 8.445312 -12.742188 8.53125 -12.828125 C 8.625 -12.921875 8.703125 -13.097656 8.765625 -13.359375 L 9.34375 -13.359375 L 9.34375 -9.171875 L 8.796875 -9.171875 C 8.609375 -9.796875 8.421875 -10.28125 8.234375 -10.625 C 8.046875 -10.976562 7.785156 -11.320312 7.453125 -11.65625 C 6.753906 -12.375 5.960938 -12.734375 5.078125 -12.734375 C 4.421875 -12.734375 3.898438 -12.554688 3.515625 -12.203125 C 3.140625 -11.859375 2.953125 -11.394531 2.953125 -10.8125 C 2.953125 -10.332031 3.085938 -9.941406 3.359375 -9.640625 C 3.628906 -9.347656 4.15625 -9.007812 4.9375 -8.625 L 7.78125 -7.21875 C 8.40625 -6.90625 8.914062 -6.421875 9.3125 -5.765625 C 9.707031 -5.109375 9.90625 -4.421875 9.90625 -3.703125 Z M 9.90625 -3.703125" transform="translate(237.58 271.032)"/></g></g></g><g fill="#FF9147"><g><g><path d="M 13.484375 -12.5625 C 12.878906 -12.46875 12.441406 -12.21875 12.171875 -11.8125 L 8.484375 -5.8125 L 8.484375 -2.25 C 8.484375 -1.550781 8.578125 -1.097656 8.765625 -0.890625 C 8.960938 -0.691406 9.460938 -0.554688 10.265625 -0.484375 L 10.265625 0 L 3.5625 0 L 3.5625 -0.484375 C 4.351562 -0.554688 4.847656 -0.691406 5.046875 -0.890625 C 5.253906 -1.097656 5.359375 -1.550781 5.359375 -2.25 L 5.359375 -5.09375 L 1.828125 -11.5 C 1.429688 -12.164062 0.921875 -12.519531 0.296875 -12.5625 L 0.296875 -13.046875 L 6.75 -13.046875 L 6.75 -12.5625 L 6.265625 -12.546875 C 5.867188 -12.546875 5.585938 -12.5 5.421875 -12.40625 C 5.265625 -12.3125 5.1875 -12.164062 5.1875 -11.96875 C 5.1875 -11.769531 5.300781 -11.46875 5.53125 -11.0625 C 5.601562 -10.945312 5.644531 -10.867188 5.65625 -10.828125 L 7.96875 -6.34375 L 10.109375 -9.921875 C 10.609375 -10.742188 10.859375 -11.351562 10.859375 -11.75 C 10.859375 -12.03125 10.75 -12.222656 10.53125 -12.328125 C 10.3125 -12.429688 9.882812 -12.507812 9.25 -12.5625 L 9.25 -13.046875 L 13.484375 -13.046875 Z M 13.484375 -12.5625" transform="translate(253.127 271.032)"/></g></g></g><g fill="#FF9147"><g><g><path d="M 9.90625 -3.703125 C 9.90625 -2.492188 9.460938 -1.515625 8.578125 -0.765625 C 7.691406 -0.015625 6.535156 0.359375 5.109375 0.359375 C 4.328125 0.359375 3.492188 0.207031 2.609375 -0.09375 C 2.203125 -0.226562 1.9375 -0.296875 1.8125 -0.296875 C 1.65625 -0.296875 1.53125 -0.242188 1.4375 -0.140625 C 1.351562 -0.046875 1.285156 0.117188 1.234375 0.359375 L 0.671875 0.359375 L 0.671875 -4.40625 L 1.234375 -4.40625 C 1.398438 -3.707031 1.5625 -3.164062 1.71875 -2.78125 C 1.882812 -2.394531 2.109375 -2.019531 2.390625 -1.65625 C 3.128906 -0.726562 4.054688 -0.265625 5.171875 -0.265625 C 5.921875 -0.265625 6.515625 -0.460938 6.953125 -0.859375 C 7.390625 -1.253906 7.609375 -1.785156 7.609375 -2.453125 C 7.609375 -2.960938 7.457031 -3.378906 7.15625 -3.703125 C 6.863281 -4.023438 6.289062 -4.382812 5.4375 -4.78125 L 4.15625 -5.40625 C 2.488281 -6.195312 1.457031 -7.101562 1.0625 -8.125 C 0.914062 -8.519531 0.84375 -8.941406 0.84375 -9.390625 C 0.84375 -10.617188 1.21875 -11.582031 1.96875 -12.28125 C 2.726562 -12.976562 3.765625 -13.328125 5.078125 -13.328125 C 5.785156 -13.328125 6.535156 -13.179688 7.328125 -12.890625 C 7.710938 -12.765625 7.984375 -12.703125 8.140625 -12.703125 C 8.316406 -12.703125 8.445312 -12.742188 8.53125 -12.828125 C 8.625 -12.921875 8.703125 -13.097656 8.765625 -13.359375 L 9.34375 -13.359375 L 9.34375 -9.171875 L 8.796875 -9.171875 C 8.609375 -9.796875 8.421875 -10.28125 8.234375 -10.625 C 8.046875 -10.976562 7.785156 -11.320312 7.453125 -11.65625 C 6.753906 -12.375 5.960938 -12.734375 5.078125 -12.734375 C 4.421875 -12.734375 3.898438 -12.554688 3.515625 -12.203125 C 3.140625 -11.859375 2.953125 -11.394531 2.953125 -10.8125 C 2.953125 -10.332031 3.085938 -9.941406 3.359375 -9.640625 C 3.628906 -9.347656 4.15625 -9.007812 4.9375 -8.625 L 7.78125 -7.21875 C 8.40625 -6.90625 8.914062 -6.421875 9.3125 -5.765625 C 9.707031 -5.109375 9.90625 -4.421875 9.90625 -3.703125 Z M 9.90625 -3.703125" transform="translate(271.877 271.032)"/></g></g></g><g fill="#FF9147"><g><g><path d="M 12.265625 -9.171875 L 11.71875 -9.171875 C 11.550781 -10.316406 11.1875 -11.132812 10.625 -11.625 C 10.0625 -12.125 9.191406 -12.390625 8.015625 -12.421875 L 8.015625 -2.25 C 8.015625 -1.519531 8.117188 -1.054688 8.328125 -0.859375 C 8.535156 -0.671875 9.0625 -0.546875 9.90625 -0.484375 L 9.90625 0 L 3.015625 0 L 3.015625 -0.484375 C 3.835938 -0.546875 4.351562 -0.675781 4.5625 -0.875 C 4.769531 -1.070312 4.875 -1.53125 4.875 -2.25 L 4.875 -12.421875 C 3.6875 -12.390625 2.8125 -12.125 2.25 -11.625 C 1.6875 -11.132812 1.320312 -10.316406 1.15625 -9.171875 L 0.59375 -9.171875 L 0.65625 -13.046875 L 12.234375 -13.046875 Z M 12.265625 -9.171875" transform="translate(287.425 271.032)"/></g></g></g><g fill="#FF9147"><g><g><path d="M 12.375 -4.015625 L 11.59375 0 L 0.3125 0 L 0.3125 -0.484375 C 1.03125 -0.554688 1.488281 -0.675781 1.6875 -0.84375 C 1.894531 -1.007812 2 -1.347656 2 -1.859375 L 2 -11.1875 C 2 -11.675781 1.882812 -12.015625 1.65625 -12.203125 C 1.425781 -12.398438 0.976562 -12.519531 0.3125 -12.5625 L 0.3125 -13.046875 L 11.4375 -13.046875 L 11.4375 -9.171875 L 10.953125 -9.171875 C 10.710938 -10.453125 10.28125 -11.304688 9.65625 -11.734375 C 9.039062 -12.171875 7.953125 -12.390625 6.390625 -12.390625 C 5.890625 -12.390625 5.554688 -12.328125 5.390625 -12.203125 C 5.222656 -12.078125 5.140625 -11.835938 5.140625 -11.484375 L 5.140625 -7 C 6.179688 -6.988281 6.925781 -7.1875 7.375 -7.59375 C 7.820312 -8.007812 8.117188 -8.769531 8.265625 -9.875 L 8.765625 -9.875 L 8.765625 -3.359375 L 8.265625 -3.359375 C 8.140625 -4.472656 7.847656 -5.25 7.390625 -5.6875 C 6.941406 -6.125 6.191406 -6.34375 5.140625 -6.34375 L 5.140625 -1.671875 C 5.140625 -1.265625 5.25 -0.984375 5.46875 -0.828125 C 5.695312 -0.671875 6.117188 -0.59375 6.734375 -0.59375 C 8.171875 -0.59375 9.328125 -0.945312 10.203125 -1.65625 C 10.796875 -2.15625 11.335938 -2.941406 11.828125 -4.015625 Z M 12.375 -4.015625" transform="translate(305.114 271.032)"/></g></g></g><g fill="#FF9147"><g><g><path d="M 17.765625 0 L 11.359375 0 L 11.359375 -0.484375 C 12.085938 -0.546875 12.554688 -0.664062 12.765625 -0.84375 C 12.972656 -1.03125 13.078125 -1.394531 13.078125 -1.9375 L 13.078125 -11.75 L 8.21875 0 L 7.703125 0 L 2.84375 -11.46875 L 2.84375 -2.390625 C 2.84375 -1.671875 2.96875 -1.1875 3.21875 -0.9375 C 3.476562 -0.6875 4 -0.535156 4.78125 -0.484375 L 4.78125 0 L 0.265625 0 L 0.265625 -0.484375 C 1.015625 -0.554688 1.492188 -0.6875 1.703125 -0.875 C 1.921875 -1.0625 2.03125 -1.445312 2.03125 -2.03125 L 2.03125 -11.1875 C 2.03125 -11.6875 1.921875 -12.023438 1.703125 -12.203125 C 1.484375 -12.390625 1.019531 -12.507812 0.3125 -12.5625 L 0.3125 -13.046875 L 5.1875 -13.046875 L 9.046875 -3.9375 L 12.90625 -13.046875 L 17.765625 -13.046875 L 17.765625 -12.5625 C 17.066406 -12.507812 16.609375 -12.375 16.390625 -12.15625 C 16.179688 -11.9375 16.078125 -11.476562 16.078125 -10.78125 L 16.078125 -2.25 C 16.078125 -1.570312 16.171875 -1.128906 16.359375 -0.921875 C 16.554688 -0.722656 17.023438 -0.578125 17.765625 -0.484375 Z M 17.765625 0" transform="translate(322.803 271.032)"/></g></g></g></svg>